<?xml version="1.0" standalone="no"?>
<!DOCTYPE svg PUBLIC "-//W3C//DTD SVG 20010904//EN"
 "http://www.w3.org/TR/2001/REC-SVG-20010904/DTD/svg10.dtd">
<svg version="1.0" xmlns="http://www.w3.org/2000/svg"
 width="210.000000pt" height="194.000000pt" viewBox="0 0 210.000000 194.000000"
 preserveAspectRatio="xMidYMid meet">

<g transform="translate(0.000000,194.000000) scale(0.100000,-0.100000)"
fill="#000000" stroke="none">
<path d="M653 1687 c-10 -13 -29 -47 -42 -76 l-25 -52 43 -86 c23 -47 41 -86
39 -87 -2 -1 -33 -17 -71 -35 -321 -155 -406 -585 -168 -852 101 -114 229
-174 393 -186 l93 -6 58 -52 c94 -85 241 -144 360 -145 70 0 191 31 261 68
325 170 390 614 127 872 -73 72 -166 124 -255 142 -31 7 -58 10 -61 7 -2 -3 4
-23 15 -45 12 -21 30 -68 41 -104 17 -56 25 -69 55 -85 47 -25 116 -103 144
-162 88 -185 -26 -424 -227 -479 -124 -34 -240 -5 -334 83 -76 71 -102 128
-107 239 -4 83 -2 97 23 152 28 63 119 162 149 162 20 0 30 -56 23 -130 -5
-55 -34 -132 -73 -192 -25 -37 -7 -93 48 -149 l41 -43 44 50 c58 65 110 172
129 264 48 229 -83 492 -295 592 -39 18 -71 36 -71 41 0 4 18 44 40 88 l41 80
-38 72 -38 72 -172 3 c-169 2 -171 2 -190 -21z m294 -493 c26 -9 62 -26 80
-39 l33 -22 -41 -28 c-145 -101 -239 -299 -226 -475 3 -41 9 -86 13 -99 7 -23
6 -24 -32 -17 -110 20 -224 116 -264 224 -31 80 -25 205 12 277 26 50 103 131
149 155 75 41 195 51 276 24z"/>
</g>
</svg>
